<?xml version="1.0" encoding="UTF-8" standalone="no"?>
<svg
   xmlns:dc="http://purl.org/dc/elements/1.1/"
   xmlns:cc="http://creativecommons.org/ns#"
   xmlns:rdf="http://www.w3.org/1999/02/22-rdf-syntax-ns#"
   xmlns:svg="http://www.w3.org/2000/svg"
   xmlns="http://www.w3.org/2000/svg"
   xmlns:sodipodi="http://sodipodi.sourceforge.net/DTD/sodipodi-0.dtd"
   xmlns:inkscape="http://www.inkscape.org/namespaces/inkscape"
   version="1.1"
   id="svg2"
   width="512"
   height="512"
   viewBox="0 0 512 512"
   sodipodi:docname="ground.svg"
   inkscape:version="1.0.2-2 (e86c870879, 2021-01-15)">
  <metadata
     id="metadata8">
    <rdf:RDF>
      <cc:Work
         rdf:about="">
        <dc:format>image/svg+xml</dc:format>
        <dc:type
           rdf:resource="http://purl.org/dc/dcmitype/StillImage" />
        <dc:title></dc:title>
      </cc:Work>
    </rdf:RDF>
  </metadata>
  <defs
     id="defs6" />
  <sodipodi:namedview
     pagecolor="#ffffff"
     bordercolor="#666666"
     borderopacity="1"
     objecttolerance="10"
     gridtolerance="10"
     guidetolerance="10"
     inkscape:pageopacity="0"
     inkscape:pageshadow="2"
     inkscape:window-width="1920"
     inkscape:window-height="1013"
     id="namedview4"
     showgrid="false"
     inkscape:zoom="1.6445312"
     inkscape:cx="255.99587"
     inkscape:cy="353.23651"
     inkscape:window-x="-9"
     inkscape:window-y="-9"
     inkscape:window-maximized="1"
     inkscape:current-layer="g10" />
  <g
     inkscape:groupmode="layer"
     inkscape:label="Image"
     id="g10">
    <path
       style="fill:#000000;stroke-width:1.18443"
       d="M -0.60807605,354.37108 V 195.06518 H 2.3103 c 2.0231375,0 3.8048774,-1.3046 5.8082657,-4.25285 2.5635113,-3.77256 2.9730493,-3.99085 3.6262283,-1.93286 0.404988,1.27601 1.788721,3.27239 3.074963,4.43642 2.270321,2.05461 2.338624,2.02841 2.338624,-0.897 0,-3.49509 4.631527,-10.00037 4.698317,-6.59909 0.02167,1.10369 1.381451,3.50216 3.021728,5.32994 l 2.982324,3.32322 -0.699129,-3.08691 c -0.478957,-2.11476 -0.01939,-3.76982 1.459289,-5.2554 2.091136,-2.10087 2.170888,-2.07848 2.558358,0.71806 0.775871,5.59981 8.483291,11.12782 8.483291,6.08449 0,-1.17258 0.632962,-2.76493 1.406583,-3.53855 1.085821,-1.08583 2.160016,-0.53212 4.710509,2.42808 l 3.303929,3.83466 2.218575,-2.81546 c 2.211293,-2.80621 2.22074,-2.80718 2.877402,-0.29611 1.073932,4.10672 6.312666,3.34943 8.694669,-1.25684 l 1.952751,-3.7762 1.456688,3.48009 1.456689,3.48009 2.666296,-4.45207 2.666295,-4.45208 5.798986,4.25684 c 5.105997,3.74815 5.798986,3.97905 5.798986,1.93214 0,-2.5961 1.723476,-4.31508 5.47799,-5.46371 2.134887,-0.65312 2.516915,-0.28464 2.516915,2.42765 0,3.62407 3.004062,6.34345 7.00754,6.34345 2.307828,0 2.560628,-0.39162 1.720328,-2.66497 -1.13245,-3.06373 -0.58814,-5.34986 1.97402,-8.29101 2.47327,-2.83911 4.18101,-2.61514 2.59901,0.34084 -1.51738,2.83526 -0.72933,6.013 2.13371,8.60401 1.9008,1.7202 2.04879,1.58951 2.04252,-1.80381 -0.004,-2.01211 0.65946,-3.88678 1.47376,-4.16594 0.84805,-0.29072 1.48054,0.46819 1.48054,1.77645 0,2.90463 3.60163,6.20443 6.77191,6.20443 1.85325,0 2.62791,-1.00225 3.22189,-4.16838 l 0.78199,-4.16839 3.93129,4.16839 c 2.87097,3.04411 4.93181,4.16838 7.64084,4.16838 2.43295,0 3.70954,-0.58488 3.70954,-1.69954 0,-0.93475 0.5547,-3.15851 1.23266,-4.94169 l 1.23266,-3.24214 2.85413,4.20021 c 3.86831,5.69272 8.89372,7.69069 8.89372,3.53589 0,-1.18099 1.63304,-3.71181 3.62897,-5.62404 2.28712,-2.19118 3.33478,-2.71011 2.83335,-1.40338 -0.43761,1.14037 -0.43675,3.50335 0.002,5.25106 l 0.79754,3.17766 1.40295,-2.80055 c 0.77163,-1.5403 3.14218,-3.50881 5.2679,-4.37448 l 3.86496,-1.57393 -0.75916,4.74746 c -0.86162,5.38832 1.17026,6.68153 2.45504,1.56252 0.43965,-1.75171 1.91349,-4.74956 3.27519,-6.6619 l 2.47581,-3.47695 1.73167,3.40472 c 2.5309,4.97709 7.49468,9.91908 9.96235,9.91908 1.18099,0 2.14726,-0.55012 2.14726,-1.22247 0,-0.67236 0.81536,-3.17391 1.81192,-5.559 l 1.81192,-4.33652 2.50907,5.07129 c 3.8167,7.71424 7.98362,7.77844 8.08207,0.12455 0.0371,-2.88314 0.10305,-2.85976 2.50332,0.88832 3.01415,4.70655 4.59555,4.90927 4.61958,0.59222 0.009,-1.79146 0.51238,-4.03862 1.11644,-4.99371 0.87926,-1.39021 1.34804,-1.07959 2.35071,1.55765 0.68884,1.81179 1.25244,3.761 1.25244,4.33158 0,0.57059 0.5901,1.40213 1.31132,1.84786 0.89412,0.55259 1.041,-0.0413 0.46167,-1.86659 -0.835,-2.63088 -0.7791,-2.62321 3.24209,0.44389 5.96766,4.55176 7.01266,4.1069 5.12062,-2.17988 l -1.59531,-5.3008 7.42841,5.3008 c 4.08564,2.91545 8.61829,5.30081 10.07256,5.30081 2.3124,0 2.58483,-0.50797 2.17147,-4.04876 l -0.47267,-4.04877 3.00806,2.16979 c 1.65442,1.19338 4.185,3.28182 5.6235,4.64097 3.13695,2.96395 3.65739,3.001 8.46491,0.60269 2.50233,-1.24832 4.99869,-1.59326 7.52116,-1.03923 3.24364,0.71242 4.15929,0.34986 6.49824,-2.57311 l 2.7226,-3.40238 0.006,3.13995 c 0.006,2.85072 0.41501,3.13325 4.4475,3.06705 2.44289,-0.0401 5.14848,-0.61932 6.01243,-1.28715 1.11764,-0.86394 1.87673,-0.72367 2.63125,0.48625 1.12371,1.80194 1.13903,1.7955 8.11246,-3.41399 2.61874,-1.95637 3.67524,-2.27108 3.67524,-1.0948 0,2.17886 4.98454,6.80149 7.334,6.80149 1.01826,0 2.55484,-0.84763 3.41463,-1.8836 1.42731,-1.71981 1.68594,-1.71581 2.97412,0.0458 2.30353,3.15025 12.09114,1.76712 15.49457,-2.1896 l 2.70169,-3.14091 0.72941,2.9062 c 0.40118,1.5984 1.45026,3.18282 2.3313,3.5209 1.88786,0.72443 7.1218,-0.64961 11.78873,-3.09487 3.02093,-1.58282 3.52231,-1.54146 5.51907,0.4553 3.07976,3.07974 8.58024,2.84117 10.80607,-0.4687 l 1.79214,-2.66496 2.87027,2.66496 c 3.36647,3.12567 6.16982,3.32866 12.04841,0.87243 3.83038,-1.60044 4.29015,-1.60044 4.29015,0 0,2.52839 9.27398,2.51127 10.24491,-0.0189 0.59176,-1.54211 0.89443,-1.5646 2.03558,-0.1512 2.41328,2.989 6.96872,3.27974 9.79446,0.6251 l 2.59557,-2.43841 1.32736,2.4802 c 1.8288,3.41712 3.16252,3.10732 4.61983,-1.07309 1.47476,-4.23053 2.13941,-4.34852 5.69246,-1.01059 2.09709,1.97012 3.074,2.23778 4.33817,1.18861 1.2629,-1.04812 2.10973,-0.82574 3.74763,0.9841 1.16382,1.28602 3.37669,2.23388 4.91751,2.10635 2.17241,-0.1798 2.80146,-0.92738 2.80146,-3.3294 0,-4.58065 0.97448,-4.84934 5.86054,-1.61591 5.31491,3.51725 7.91292,4.252 17.36928,4.9123 6.76249,0.47221 7.29377,0.32358 8.05538,-2.25327 l 0.81537,-2.75884 1.0858,2.66497 c 1.11488,2.7364 5.15768,3.63959 6.50843,1.45403 0.41162,-0.66602 3.80898,-2.75591 7.5497,-4.64422 l 6.80131,-3.43329 2.18216,4.05201 c 2.23836,4.15638 3.65145,5.03936 4.41224,2.75701 0.27397,-0.82189 2.47354,-0.30296 6.02086,1.42045 l 5.58919,2.71544 V 355.19924 513.6769 H 256.41333 -0.60807605 Z"
       id="path837" />
  </g>
</svg>
