<?xml version="1.0" encoding="UTF-8" standalone="no"?>
<svg
   xmlns:dc="http://purl.org/dc/elements/1.1/"
   xmlns:cc="http://creativecommons.org/ns#"
   xmlns:rdf="http://www.w3.org/1999/02/22-rdf-syntax-ns#"
   xmlns:svg="http://www.w3.org/2000/svg"
   xmlns="http://www.w3.org/2000/svg"
   xmlns:sodipodi="http://sodipodi.sourceforge.net/DTD/sodipodi-0.dtd"
   xmlns:inkscape="http://www.inkscape.org/namespaces/inkscape"
   version="1.1"
   id="svg2"
   width="514.04297"
   height="110.93359"
   viewBox="0 0 514.04297 110.93359"
   sodipodi:docname="ground.svg"
   inkscape:version="1.0.2-2 (e86c870879, 2021-01-15)">
  <metadata
     id="metadata8">
    <rdf:RDF>
      <cc:Work
         rdf:about="">
        <dc:format>image/svg+xml</dc:format>
        <dc:type
           rdf:resource="http://purl.org/dc/dcmitype/StillImage" />
        <dc:title></dc:title>
      </cc:Work>
    </rdf:RDF>
  </metadata>
  <defs
     id="defs6" />
  <sodipodi:namedview
     pagecolor="#ffffff"
     bordercolor="#666666"
     borderopacity="1"
     objecttolerance="10"
     gridtolerance="10"
     guidetolerance="10"
     inkscape:pageopacity="0"
     inkscape:pageshadow="2"
     inkscape:window-width="1920"
     inkscape:window-height="1013"
     id="namedview4"
     showgrid="false"
     inkscape:zoom="1.1628592"
     inkscape:cx="310.09404"
     inkscape:cy="199.12813"
     inkscape:window-x="-9"
     inkscape:window-y="-9"
     inkscape:window-maximized="1"
     inkscape:current-layer="g10"
     inkscape:document-rotation="0" />
  <g
     inkscape:groupmode="layer"
     inkscape:label="Image"
     id="g10"
     transform="translate(0.60807605,-181.74138)">
    <path
       id="path848"
       style="fill:#000000;stroke-width:1.18443"
       d="M 0,110.93359 H 514.04297 V 14.980469 l -5.58985,-2.714844 c -3.54731,-1.72341 -5.74751,-2.243765 -6.02148,-1.421875 -0.76079,2.28235 -2.17375,1.400521 -4.41211,-2.7558594 L 495.83789,4.0351562 489.03711,7.46875 c -3.74072,1.88831 -7.13916,3.978511 -7.55078,4.644531 -1.35075,2.18556 -5.39293,1.281322 -6.50781,-1.455078 l -1.08594,-2.6640624 -0.81446,2.7578124 c -0.7616,2.57685 -1.29415,2.726116 -8.05664,2.253906 -9.45636,-0.6603 -12.05423,-1.394859 -17.36914,-4.912109 -4.88606,-3.23343 -5.85937,-2.9654156 -5.85937,1.6152344 0,2.4020196 -0.63033,3.1502776 -2.80274,3.3300776 -1.54082,0.127531 -3.75219,-0.821401 -4.91601,-2.107421 -1.6379,-1.8098404 -2.48515,-2.0305423 -3.74805,-0.9824222 -1.26417,1.0491702 -2.2408,0.7806672 -4.33789,-1.1894532 -3.55305,-3.33793 -4.2186,-3.2207643 -5.69336,1.0097656 -1.45731,4.1804098 -2.79034,4.4913388 -4.61914,1.0742188 l -1.32812,-2.4804688 -2.59571,2.4374998 c -2.82574,2.65464 -7.38164,2.364 -9.79492,-0.625 -1.14115,-1.4133998 -1.44339,-1.389766 -2.03515,0.152344 -0.97093,2.53017 -10.24415,2.547921 -10.24415,0.01953 0,-1.6004397 -0.46063,-1.6004397 -4.29101,0 -5.87859,2.45623 -8.68236,2.252623 -12.04883,-0.8730466 l -2.86914,-2.6660156 -1.79297,2.6660156 c -2.22583,3.3098696 -7.72493,3.5484896 -10.80469,0.46875 -1.99676,-1.99676 -2.4986,-2.0378981 -5.51953,-0.4550782 -4.66693,2.4452598 -9.9012,3.8181798 -11.78906,3.0937498 -0.88104,-0.33808 -1.93085,-1.921131 -2.33203,-3.519531 l -0.72852,-2.90625 -2.70117,3.140625 c -3.40343,3.95672 -13.19256,5.339703 -15.49609,2.189453 -1.28818,-1.7616099 -1.54535,-1.7666849 -2.97266,-0.04687 -0.85979,1.03597 -2.39775,1.884766 -3.41601,1.884766 -2.34946,0 -7.33399,-4.6238746 -7.33399,-6.8027346 0,-1.17628 -1.05509,-0.8606669 -3.67383,1.0957031 -6.97343,5.2094905 -6.98957,5.2160025 -8.11328,3.4140625 -0.75452,-1.20992 -1.51322,-1.3502681 -2.63086,-0.486328 -0.86395,0.66783 -3.56883,1.247009 -6.01172,1.287109 -4.03249,0.0662 -4.44322,-0.215686 -4.44922,-3.066406 l -0.006,-3.140625 -2.72266,3.4023438 c -2.33895,2.9229702 -3.25441,3.2846852 -6.49805,2.5722652 -2.52247,-0.55403 -5.01915,-0.207304 -7.52148,1.041016 -4.80752,2.39831 -5.3279,2.360434 -8.46485,-0.603516 -1.4385,-1.35915 -3.96862,-3.4472446 -5.62304,-4.6406246 l -3.00781,-2.1699219 0.47265,4.0488281 c 0.41336,3.5407904 0.14053,4.0488284 -2.17187,4.0488284 -1.45427,0 -5.98663,-2.385332 -10.07227,-5.3007815 l -7.42773,-5.3007813 1.5957,5.3007813 c 1.89204,6.2867795 0.84657,6.7314475 -5.12109,2.1796875 -4.02119,-3.0671 -4.07719,-3.0742394 -3.24219,-0.4433594 0.57933,1.8252904 0.43123,2.4178244 -0.46289,1.8652344 -0.72122,-0.44573 -1.31055,-1.277066 -1.31055,-1.8476562 0,-0.5705801 -0.56311,-2.5202413 -1.25195,-4.3320313 -1.00267,-2.63724 -1.47231,-2.9468506 -2.35157,-1.5566406 -0.60405,0.95509 -1.10623,3.2026806 -1.11523,4.9941406 -0.024,4.3170495 -1.60694,4.1127995 -4.62109,-0.59375 -2.40027,-3.74808 -2.46486,-3.7698587 -2.50196,-0.8867187 -0.0985,7.6538902 -4.26533,7.5892402 -8.08203,-0.125 l -2.50976,-5.0722657 -1.8125,4.3378907 c -0.99656,2.3850899 -1.81055,4.8862342 -1.81055,5.5585932 0,0.67235 -0.96745,1.222657 -2.14844,1.222657 -2.46767,0 -7.43003,-4.9428321 -9.96094,-9.9199221 L 179.2207,0 176.74414,3.4765625 c -1.3617,1.91234 -2.83574,4.9103994 -3.27539,6.6621095 -1.28478,5.11901 -3.3167,3.82582 -2.45508,-1.5625001 l 0.75977,-4.7480469 -3.86524,1.5742188 c -2.12572,0.8656699 -4.49595,2.8346999 -5.26758,4.375 l -1.40234,2.8007812 -0.79883,-3.1777344 c -0.43875,-1.74771 -0.43956,-4.1115831 -0.002,-5.2519531 0.50143,-1.30673 -0.54491,-0.7868831 -2.83203,1.4042969 -1.99593,1.91223 -3.62891,4.4420568 -3.62891,5.6230466 0,4.1548 -5.02622,2.157564 -8.89453,-3.535156 l -2.85351,-4.1992188 -1.23243,3.2402344 c -0.67796,1.78318 -1.23242,4.0086094 -1.23242,4.9433594 0,1.11466 -1.27799,1.699219 -3.71094,1.699219 -2.70903,0 -4.76965,-1.123859 -7.64062,-4.167969 L 124.48047,4.9863281 123.69922,9.15625 c -0.59398,3.16613 -1.36941,4.167969 -3.22266,4.167969 -3.17028,0 -6.77148,-3.300448 -6.77148,-6.2050784 0,-1.30826 -0.63242,-2.0661106 -1.48047,-1.7753906 -0.8143,0.27916 -1.47666,2.1539056 -1.47266,4.1660156 0.006,3.3933204 -0.14217,3.5229344 -2.04297,1.8027344 -2.86304,-2.59101 -3.65214,-5.7682556 -2.13476,-8.6035156 1.582,-2.95598002 -0.12439,-3.1809069 -2.59766,-0.3417969 -2.56216,2.94115 -3.10706,5.2272856 -1.97461,8.2910155 0.8403,2.27335 0.58713,2.666016 -1.7207,2.666016 -4.003478,0 -7.007812,-2.71968 -7.007812,-6.3437502 0,-2.71229 -0.380738,-3.0808544 -2.515626,-2.4277344 -3.754513,1.14863 -5.478515,2.8667906 -5.478515,5.4628906 0,2.04691 -0.692831,1.816509 -5.798828,-1.9316406 L 73.681641,3.828125 71.015625,8.2792969 68.347656,12.732422 66.892578,9.2519531 65.435547,5.7714844 63.482422,9.546875 c -2.382003,4.60627 -7.621381,5.364532 -8.695313,1.257813 -0.656662,-2.5110705 -0.66566,-2.5112886 -2.876953,0.294921 l -2.21875,2.816407 -3.302734,-3.833985 C 43.838179,7.1218313 42.763555,6.5665138 41.677734,7.6523438 c -0.773621,0.7736199 -1.40625,2.3664822 -1.40625,3.5390622 0,5.04333 -7.708504,-0.484174 -8.484375,-6.0839841 -0.38747,-2.79654 -0.467457,-2.81962 -2.558593,-0.71875 -1.478679,1.48558 -1.937942,3.1410994 -1.458985,5.2558593 L 28.46875,12.732422 25.486328,9.4082031 C 23.846051,7.5804231 22.486514,5.181815 22.464844,4.078125 c -0.06679,-3.40128 -4.699219,3.1045194 -4.699219,6.599609 0,2.92541 -0.06757,2.951095 -2.337891,0.896485 C 14.141492,10.410189 12.758504,8.4146819 12.353516,7.1386719 11.700337,5.0806819 11.290074,5.2977525 8.7265625,9.0703125 6.7231742,12.018563 4.9411062,13.324219 2.9179688,13.324219 H 0 Z"
       transform="translate(-0.60807605,181.74138)" />
  </g>
</svg>
