<?xml version="1.0" encoding="UTF-8" standalone="no"?>
<svg
   xmlns:dc="http://purl.org/dc/elements/1.1/"
   xmlns:cc="http://creativecommons.org/ns#"
   xmlns:rdf="http://www.w3.org/1999/02/22-rdf-syntax-ns#"
   xmlns:svg="http://www.w3.org/2000/svg"
   xmlns="http://www.w3.org/2000/svg"
   xmlns:sodipodi="http://sodipodi.sourceforge.net/DTD/sodipodi-0.dtd"
   xmlns:inkscape="http://www.inkscape.org/namespaces/inkscape"
   version="1.1"
   id="svg2"
   width="1879"
   height="745"
   viewBox="0 0 1879 745"
   sodipodi:docname="mountain.svg"
   inkscape:version="1.0.2-2 (e86c870879, 2021-01-15)">
  <metadata
     id="metadata8">
    <rdf:RDF>
      <cc:Work
         rdf:about="">
        <dc:format>image/svg+xml</dc:format>
        <dc:type
           rdf:resource="http://purl.org/dc/dcmitype/StillImage" />
        <dc:title></dc:title>
      </cc:Work>
    </rdf:RDF>
  </metadata>
  <defs
     id="defs6" />
  <sodipodi:namedview
     pagecolor="#ffffff"
     bordercolor="#666666"
     borderopacity="1"
     objecttolerance="10"
     gridtolerance="10"
     guidetolerance="10"
     inkscape:pageopacity="0"
     inkscape:pageshadow="2"
     inkscape:window-width="1920"
     inkscape:window-height="1013"
     id="namedview4"
     showgrid="false"
     inkscape:zoom="0.75625333"
     inkscape:cx="633.38564"
     inkscape:cy="369.85538"
     inkscape:window-x="-9"
     inkscape:window-y="-9"
     inkscape:window-maximized="1"
     inkscape:current-layer="g10" />
  <g
     inkscape:groupmode="layer"
     inkscape:label="Image"
     id="g10">
    <path
       style="fill:#af211e;stroke-width:1.00963;fill-opacity:1"
       d="m -0.27384447,510.65056 c 0.008462,-131.80127 0.3476306,-240.12592 0.75370444,-240.72145 0.40607374,-0.59552 5.62039653,-3.05052 11.58738403,-5.45553 24.203365,-9.75526 51.406468,-25.82918 69.390923,-41.00213 4.336402,-3.65849 8.632517,-6.87127 9.546923,-7.13951 0.914407,-0.26824 6.184782,-1.68355 11.71195,-3.1451 22.80277,-6.02982 15.92586,-0.49565 57.21291,-46.0419 29.24994,-32.26737 37.75564,-41.05684 42.15829,-43.56479 4.07049,-2.31874 8.60439,-6.73669 17.30629,-16.86371 6.48497,-7.547018 12.23909,-13.721855 12.78692,-13.721855 0.54783,0 14.15138,10.663765 30.23012,23.697245 16.07872,13.03349 30.1385,24.15654 31.24393,24.7179 1.10543,0.56137 3.76778,1.34141 5.91633,1.73344 2.96595,0.54116 6.11122,2.71192 13.06421,9.01651 15.53045,14.08216 18.34055,15.98129 29.95048,20.24125 7.49739,2.75097 15.18842,7.87138 28.4908,18.96814 5.36132,4.47238 10.60679,8.13159 11.6566,8.13159 1.04981,0 5.97085,-2.05919 10.93564,-4.57599 5.46245,-2.76909 18.02402,-7.37522 31.81197,-11.66496 26.25791,-8.16942 29.64363,-8.50855 50.01987,-5.01034 6.65906,1.14324 13.5327,2.29665 15.27477,2.56314 2.09623,0.32067 4.0677,1.67593 5.82955,4.00746 2.50863,3.31976 3.00427,3.52291 8.59523,3.52291 4.20819,0 12.1431,1.76936 27.29363,6.08607 11.74829,3.34733 22.33845,6.08606 23.53369,6.08606 1.19524,0 5.24387,-2.54057 8.99698,-5.64571 8.28251,-6.85257 17.94901,-13.81821 22.19757,-15.99548 1.72694,-0.885 6.14445,-2.09357 9.81671,-2.6857 3.67226,-0.59214 10.24379,-2.21396 14.60342,-3.60406 l 7.92659,-2.52744 13.11028,-18.10929 13.11027,-18.10929 6.83165,-2.89694 c 6.01712,-2.55154 8.80866,-4.84222 23.41315,-19.2124 12.98023,-12.771975 19.93935,-18.670962 32.04224,-27.16105 8.50342,-5.965081 16.14283,-10.845595 16.97648,-10.845595 0.83365,0 6.81303,4.336319 13.28751,9.636264 6.47937,5.303932 12.71547,9.636266 13.87078,9.636266 1.51757,0 6.6859,-5.718698 18.65768,-20.644501 11.57849,-14.435489 18.62209,-22.263939 23.41945,-26.02902 3.77344,-2.961498 15.78301,-14.31249 26.68792,-25.224452 12.10454,-12.1123465 20.1673,-19.4565634 20.70052,-18.8556814 0.48036,0.5413318 3.91216,8.9721944 7.62624,18.7352514 4.02584,10.582596 7.63431,18.510863 8.9356,19.632626 1.20052,1.034884 4.40264,3.017033 7.11582,4.404777 4.05106,2.07204 5.36391,2.325038 7.34269,1.415009 1.32528,-0.609488 2.81419,-1.10816 3.30867,-1.10816 0.49448,0 4.12689,5.754239 8.07201,12.787191 23.35375,41.632761 35.43482,59.231205 40.66129,59.231205 0.78095,0 5.26949,1.40598 9.97455,3.12439 l 8.55463,3.1244 9.16769,23.49958 c 5.04224,12.92477 9.62947,24.06119 10.19387,24.74761 2.01631,2.45223 79.04167,50.99576 80.91637,50.99576 1.0519,0 11.304,-1.82582 22.7825,-4.05738 11.4784,-2.23155 21.6597,-4.05737 22.6249,-4.05737 0.9652,0 11.9642,5.47745 24.4421,12.17212 12.4779,6.69467 23.442,12.17212 24.3646,12.17212 0.9226,0 6.7045,-1.46204 12.8486,-3.24898 l 11.1711,-3.24897 7.6082,2.84077 c 12.0928,4.51525 10.7763,4.79347 21.8069,-4.60849 5.4559,-4.65037 35.5131,-30.41001 66.7937,-57.24365 l 56.8738,-48.78843 9.9547,-2.23906 c 17.454,-3.92587 14.5889,-1.3161 36.2434,-33.012835 10.6245,-15.551511 19.9934,-28.957867 20.8197,-29.791921 1.5637,-1.578349 2.5502,-0.640731 93.1034,88.493396 10.238,10.07743 26.9702,26.52028 37.1828,36.53965 10.2127,10.01938 26.261,25.76707 35.6629,34.99485 9.402,9.2278 19.4146,18.99391 22.2503,21.70246 l 5.1559,4.92466 35.5337,7.49974 35.5337,7.49975 33.029,-10.74166 33.029,-10.74165 23.0199,5.79909 23.0198,5.79908 5.2524,-3.53469 c 2.8888,-1.94408 19.6582,-13.86943 37.2652,-26.50077 17.607,-12.63135 32.3779,-22.96608 32.8243,-22.96608 0.4463,0 11.7043,11.90011 25.0176,26.44469 l 24.206,26.44469 V 500.83247 750.28924 H 941.33885 -0.2892329 Z"
       id="path14" />
    <path
       style="fill:#af211e;fill-opacity:1;stroke-width:1.32231"
       d="M 0.66115412,510.23271 V 270.44642 L 17.520584,262.93856 c 21.338642,-9.50255 40.451537,-20.68874 57.614883,-33.72019 17.063544,-12.95569 14.38313,-11.54957 30.808453,-16.16171 7.76843,-2.18134 15.83462,-5.18384 17.92486,-6.67223 2.09024,-1.48839 18.73296,-19.05025 36.9838,-39.02638 18.25086,-19.97612 37.12838,-39.47583 41.95006,-43.33269 4.82166,-3.85686 13.22947,-12.15395 18.68399,-18.43798 5.45452,-6.284036 10.25024,-11.427259 10.65716,-11.42939 0.40691,-0.0021 14.57251,11.00434 31.47909,24.45883 16.90658,13.45449 31.74714,24.46492 32.97902,24.46765 3.29036,0.007 8.94364,3.86862 20.09092,13.72275 6.87955,6.08148 14.37271,10.98296 24.4627,16.0017 8.85552,4.40472 19.45559,11.12612 27.09763,17.18236 6.90373,5.47113 13.35276,9.9475 14.33118,9.9475 0.97841,0 6.38226,-2.02397 12.00855,-4.4977 9.92699,-4.36465 37.18453,-13.66976 48.8286,-16.66899 8.11759,-2.09092 19.948,-1.83528 35.26662,0.76205 10.8116,1.83315 13.99932,2.92871 17.55408,6.03304 3.06419,2.67591 5.75188,3.79313 9.12517,3.79313 2.62991,0 15.39348,2.76393 28.36347,6.14206 l 23.58181,6.14205 12.2515,-9.28157 c 16.76753,-12.70289 17.6418,-13.18709 28.13546,-15.58243 22.39996,-5.11314 21.08353,-4.21341 35.6074,-24.33577 11.4529,-15.86762 13.81262,-18.41273 19.0986,-20.59903 3.47915,-1.43899 10.52269,-6.73681 16.646,-12.52032 22.20111,-20.969148 28.66528,-26.500888 40.61606,-34.75736 6.77195,-4.678562 13.00955,-8.904554 13.86132,-9.391095 0.86,-0.49124 6.44613,2.847788 12.56193,7.508705 16.57862,12.634757 15.52441,12.39439 22.45401,5.119637 3.25503,-3.41715 10.24765,-11.568347 15.53916,-18.113773 5.2915,-6.545425 14.28501,-16.363564 19.98557,-21.818085 5.70057,-5.454522 18.68553,-17.820099 28.85548,-27.479061 l 18.49082,-17.5617497 6.11693,15.6411027 c 3.36431,8.602605 7.2612,17.522709 8.65975,19.82245 3.0127,4.953971 11.37281,9.569853 16.64098,9.188006 3.52943,-0.255819 4.53657,1.065053 17.02712,22.331182 25.24199,42.976441 27.54409,45.719151 42.63509,50.795011 l 10.09555,3.39564 9.1291,23.09047 c 5.02098,12.69975 10.10909,24.1744 11.30688,25.49919 2.18189,2.41328 38.43096,25.75761 65.72846,42.32899 l 14.5454,8.83002 22.9717,-4.25493 22.9717,-4.25493 24.1005,12.47848 24.1005,12.47846 12.1315,-3.42744 12.1315,-3.42743 8.8952,3.25951 c 8.1038,2.96955 9.2018,3.08673 12.3425,1.31715 1.896,-1.0683 32.5405,-26.87844 68.0988,-57.35586 l 64.6516,-55.41349 10.8758,-2.33431 c 7.0596,-1.51521 12.2195,-3.46493 14.705,-5.5564 2.1061,-1.77215 12.0375,-15.13468 22.0699,-29.694531 10.0323,-14.559846 19.0102,-26.472448 19.9507,-26.472448 0.9406,0 31.8735,29.603176 68.7398,65.784839 36.8664,36.18165 79.5851,78.01732 94.9305,92.96814 l 27.9007,27.18331 35.7023,7.54763 35.7024,7.54762 32.9274,-10.70545 32.9273,-10.70544 22.2745,5.55128 c 12.2509,3.0532 23.3202,5.2778 24.5985,4.94353 1.2782,-0.33426 15.7099,-10.11172 32.0704,-21.72766 33.632,-23.87854 41.838,-29.54543 42.7837,-29.54543 0.363,0 11.4128,11.67185 24.5551,25.93747 l 23.8951,25.93747 V 500.91636 750.019 H 941.48346 0.66115412 Z"
       id="path839" />
    <path
       style="fill:#af211e;fill-opacity:1;stroke-width:1.32231"
       d="M 0.66115412,510.18984 V 270.36067 L 14.875968,264.08034 c 24.840324,-10.97487 44.287107,-22.37213 63.140218,-37.00488 12.965445,-10.06307 13.219164,-10.19294 27.107314,-13.87511 6.1818,-1.63899 13.40741,-4.0829 16.05693,-5.43092 2.73417,-1.39109 13.58054,-12.0482 25.08252,-24.64485 38.65766,-42.33682 50.79475,-54.99996 57.40589,-59.89409 3.6547,-2.70552 11.39021,-10.34988 17.19001,-16.98747 5.7998,-6.637587 10.88129,-12.072967 11.29218,-12.078622 0.41091,-0.0057 12.01416,8.968002 25.78501,19.941452 31.11352,24.79313 36.05065,28.38676 40.44776,29.44108 1.92999,0.46277 6.58003,3.37334 10.33343,6.46795 3.7534,3.09461 9.88297,8.13435 13.62127,11.19944 3.73829,3.06507 12.77414,8.553 20.07966,12.19541 7.52363,3.75114 18.72934,10.92898 25.84468,16.55486 6.90906,5.46277 13.45449,9.94127 14.54539,9.95221 1.09091,0.0106 5.68508,-1.73127 10.20927,-3.87157 8.83561,-4.17997 35.23242,-13.301 48.27423,-16.68047 10.26409,-2.65969 20.90491,-2.61967 37.39637,0.14066 10.53178,1.76281 13.9468,2.90117 16.84132,5.61392 2.66015,2.49309 5.69936,3.64663 11.36895,4.31512 4.25601,0.50183 17.32298,3.46763 29.03772,6.59065 l 21.29952,5.67823 12.29,-9.31103 c 17.02304,-12.89684 17.23177,-13.00417 32.62074,-16.77398 7.54555,-1.84843 15.02236,-4.21466 16.61515,-5.25829 1.59277,-1.04362 8.45929,-9.57588 15.25892,-18.96056 10.61147,-14.64568 13.19252,-17.40616 18.2185,-19.48492 3.34117,-1.38192 10.77098,-7.03775 17.30268,-13.1714 22.12741,-20.778897 28.12935,-25.888335 40.2299,-34.247625 6.71484,-4.638738 12.91197,-8.836025 13.77141,-9.327302 0.88171,-0.504013 6.89517,3.14978 13.80043,8.385171 6.7308,5.103122 13.19609,9.278405 14.3673,9.278405 2.54034,0 7.93841,-5.587508 21.71709,-22.47924 9.96272,-12.213621 14.99374,-17.286783 50.82351,-51.249195 l 17.0992,-16.2080266 5.65144,14.2245646 c 3.10829,7.82351 6.72724,16.395996 8.04212,19.049968 2.91763,5.889032 10.35283,10.719867 16.78376,10.904842 4.64936,0.133732 5.00832,0.531237 13.25841,14.682843 28.15719,48.298755 32.12621,53.246075 47.03502,58.628305 l 10.47236,3.78063 9.1707,23.01017 c 5.04389,12.6556 10.09375,24.05239 11.2219,25.32621 2.08488,2.35406 39.28905,26.35192 65.81105,42.45022 l 14.5867,8.85385 20.9002,-4.00024 c 11.4951,-2.20012 22.1002,-4.00024 23.5669,-4.00024 1.4666,0 13.2259,5.4888 26.1316,12.19735 l 23.4649,12.19732 12.0256,-3.39752 12.0256,-3.39753 8.7692,2.95112 c 4.8231,1.6231 9.8186,2.67668 11.1012,2.34128 1.2825,-0.33541 32.0764,-26.04375 68.4307,-57.12966 l 66.0988,-56.51984 11.1386,-2.39004 c 13.8935,-2.98115 14.5196,-3.59642 37.4777,-36.832245 9.3955,-13.601662 17.8539,-24.730294 18.7966,-24.730294 1.6581,0 28.135,25.518897 105.6076,101.786739 20.3635,20.04689 48.0328,47.20547 61.4873,60.35237 l 24.4627,23.90348 35.7413,7.45658 35.7415,7.45658 33.0036,-10.71038 33.0036,-10.71037 21.3757,5.43869 c 11.7566,2.99129 22.4741,5.42526 23.8165,5.40885 1.3425,-0.0164 18.8045,-11.61921 38.8044,-25.78398 19.9999,-14.16477 36.7746,-25.75459 37.2772,-25.75516 0.5025,-5.7e-4 11.6595,11.62942 24.7933,25.84443 l 23.8796,25.84547 V 500.82435 750.019 H 941.48346 0.66115412 Z"
       id="path841" />
  </g>
</svg>
