<?xml version="1.0" encoding="UTF-8" standalone="no"?>
<svg
   xmlns:dc="http://purl.org/dc/elements/1.1/"
   xmlns:cc="http://creativecommons.org/ns#"
   xmlns:rdf="http://www.w3.org/1999/02/22-rdf-syntax-ns#"
   xmlns:svg="http://www.w3.org/2000/svg"
   xmlns="http://www.w3.org/2000/svg"
   xmlns:sodipodi="http://sodipodi.sourceforge.net/DTD/sodipodi-0.dtd"
   xmlns:inkscape="http://www.inkscape.org/namespaces/inkscape"
   viewBox="0 0 512 512"
   version="1.1"
   id="svg4"
   sodipodi:docname="sign-out-alt.svg"
   inkscape:version="1.0.2-2 (e86c870879, 2021-01-15)">
  <metadata
     id="metadata10">
    <rdf:RDF>
      <cc:Work
         rdf:about="">
        <dc:format>image/svg+xml</dc:format>
        <dc:type
           rdf:resource="http://purl.org/dc/dcmitype/StillImage" />
      </cc:Work>
    </rdf:RDF>
  </metadata>
  <defs
     id="defs8" />
  <sodipodi:namedview
     pagecolor="#ffffff"
     bordercolor="#666666"
     borderopacity="1"
     objecttolerance="10"
     gridtolerance="10"
     guidetolerance="10"
     inkscape:pageopacity="0"
     inkscape:pageshadow="2"
     inkscape:window-width="1920"
     inkscape:window-height="1013"
     id="namedview6"
     showgrid="false"
     inkscape:zoom="1.6445312"
     inkscape:cx="256"
     inkscape:cy="254.78385"
     inkscape:window-x="-9"
     inkscape:window-y="-9"
     inkscape:window-maximized="1"
     inkscape:current-layer="svg4" />
  <path
     d="M272 112v51.6h-96c-26.5 0-48 21.5-48 48v88.6c0 26.5 21.5 48 48 48h96v51.6c0 42.6 51.7 64.2 81.9 33.9l144-143.9c18.7-18.7 18.7-49.1 0-67.9l-144-144C323.8 48 272 69.3 272 112zm192 144L320 400v-99.7H176v-88.6h144V112l144 144zM96 64h84c6.6 0 12 5.4 12 12v24c0 6.6-5.4 12-12 12H96c-26.5 0-48 21.5-48 48v192c0 26.5 21.5 48 48 48h84c6.6 0 12 5.4 12 12v24c0 6.6-5.4 12-12 12H96c-53 0-96-43-96-96V160c0-53 43-96 96-96z"
     id="path2"
     style="fill:#ffffff;fill-opacity:1" />
</svg>
