<?xml version="1.0" encoding="UTF-8" standalone="no"?>
<svg
   xmlns:dc="http://purl.org/dc/elements/1.1/"
   xmlns:cc="http://creativecommons.org/ns#"
   xmlns:rdf="http://www.w3.org/1999/02/22-rdf-syntax-ns#"
   xmlns:svg="http://www.w3.org/2000/svg"
   xmlns="http://www.w3.org/2000/svg"
   xmlns:sodipodi="http://sodipodi.sourceforge.net/DTD/sodipodi-0.dtd"
   xmlns:inkscape="http://www.inkscape.org/namespaces/inkscape"
   viewBox="0 0 512 512"
   version="1.1"
   id="svg4"
   sodipodi:docname="chess.svg"
   inkscape:version="1.0.2-2 (e86c870879, 2021-01-15)">
  <metadata
     id="metadata10">
    <rdf:RDF>
      <cc:Work
         rdf:about="">
        <dc:format>image/svg+xml</dc:format>
        <dc:type
           rdf:resource="http://purl.org/dc/dcmitype/StillImage" />
      </cc:Work>
    </rdf:RDF>
  </metadata>
  <defs
     id="defs8" />
  <sodipodi:namedview
     pagecolor="#ffffff"
     bordercolor="#666666"
     borderopacity="1"
     objecttolerance="10"
     gridtolerance="10"
     guidetolerance="10"
     inkscape:pageopacity="0"
     inkscape:pageshadow="2"
     inkscape:window-width="1920"
     inkscape:window-height="1013"
     id="namedview6"
     showgrid="false"
     inkscape:zoom="1.6445312"
     inkscape:cx="256"
     inkscape:cy="256"
     inkscape:window-x="-9"
     inkscape:window-y="-9"
     inkscape:window-maximized="1"
     inkscape:current-layer="svg4" />
  <path
     d="M400 320a16 16 0 0 0-32 0v32h32zm103.16 115.57L480 424v-24a16 16 0 0 0-16-16h-1.1l-2.83-82.21 24.6-20.79A32 32 0 0 0 496 256.54V176a16 16 0 0 0-16-16H288a16 16 0 0 0-16 16v80.6a32 32 0 0 0 11.35 24.4l24.57 20.76L305.1 384H304a16 16 0 0 0-16 16v24l-23.15 11.57a16 16 0 0 0-8.85 14.31 16 16 0 0 0-8.84-14.31L224 424v-24a16 16 0 0 0-16-16h-6.4c-6-30.16-9.6-60.75-9.6-91.47V256h24a8 8 0 0 0 8-8v-16a8 8 0 0 0-8-8h-16.9l31.81-84.78a32 32 0 0 0-30-43.22H144V64h24a8 8 0 0 0 8-8V40a8 8 0 0 0-8-8h-24V8a8 8 0 0 0-8-8h-16a8 8 0 0 0-8 8v24H88a8 8 0 0 0-8 8v16a8 8 0 0 0 8 8h24v32H55.09a32 32 0 0 0-30 43.25L56.91 224H40a8 8 0 0 0-8 8v16a8 8 0 0 0 8 8h24v36.53c0 30.71-3.56 61.31-9.6 91.47H48a16 16 0 0 0-16 16v24L8.84 435.57c-4.25 2.13-6.7 6.19-7.81 10.68-.3 1.24-1 2.33-1 3.64V496a16 16 0 0 0 16 16H240a16 16 0 0 0 16-16 16 16 0 0 0 16 16h224a16 16 0 0 0 16-16v-46.12a16 16 0 0 0-8.84-14.31zM55.09 128h145.85l-36 96H91.09zm113.79 256H87.12A499.15 499.15 0 0 0 96 292.53V256h64v36.53a499.15 499.15 0 0 0 8.88 91.47zM224 480H32v-20.22l32-16V416h128v27.78l32 16zm80-223.4V192h32v32h32v-32h32v32h32v-32h32v64.54l-24.6 20.82-11.84 10 .53 15.5 2.79 81.14h-93.76l2.79-81.1.53-15.52-11.86-10zM480 480H288v-20.22l32-16V416h128v27.78l32 16z"
     id="path2"
     style="fill:#ffffff;fill-opacity:1" />
</svg>
