<?xml version="1.0" encoding="UTF-8" standalone="no"?>
<svg
   xmlns:dc="http://purl.org/dc/elements/1.1/"
   xmlns:cc="http://creativecommons.org/ns#"
   xmlns:rdf="http://www.w3.org/1999/02/22-rdf-syntax-ns#"
   xmlns:svg="http://www.w3.org/2000/svg"
   xmlns="http://www.w3.org/2000/svg"
   xmlns:sodipodi="http://sodipodi.sourceforge.net/DTD/sodipodi-0.dtd"
   xmlns:inkscape="http://www.inkscape.org/namespaces/inkscape"
   width="440.17142mm"
   height="135.46667mm"
   viewBox="0 0 440.17142 135.46667"
   version="1.1"
   id="svg8"
   inkscape:version="1.0.2-2 (e86c870879, 2021-01-15)"
   sodipodi:docname="skyline.svg">
  <defs
     id="defs2" />
  <sodipodi:namedview
     id="base"
     pagecolor="#ffffff"
     bordercolor="#666666"
     borderopacity="1.0"
     inkscape:pageopacity="0.0"
     inkscape:pageshadow="2"
     inkscape:zoom="0.49497475"
     inkscape:cx="660.49461"
     inkscape:cy="578.80431"
     inkscape:document-units="mm"
     inkscape:current-layer="layer1"
     inkscape:document-rotation="0"
     showgrid="false"
     width="251mm"
     inkscape:snap-intersection-paths="true"
     inkscape:object-paths="true"
     inkscape:snap-smooth-nodes="true"
     inkscape:snap-object-midpoints="true"
     inkscape:snap-bbox="true"
     inkscape:snap-bbox-midpoints="true"
     inkscape:snap-bbox-edge-midpoints="true"
     inkscape:bbox-nodes="true"
     inkscape:bbox-paths="true"
     inkscape:snap-midpoints="true"
     inkscape:snap-page="true"
     inkscape:window-width="1920"
     inkscape:window-height="1013"
     inkscape:window-x="-9"
     inkscape:window-y="-9"
     inkscape:window-maximized="1" />
  <metadata
     id="metadata5">
    <rdf:RDF>
      <cc:Work
         rdf:about="">
        <dc:format>image/svg+xml</dc:format>
        <dc:type
           rdf:resource="http://purl.org/dc/dcmitype/StillImage" />
        <dc:title></dc:title>
      </cc:Work>
    </rdf:RDF>
  </metadata>
  <g
     inkscape:label="Livello 1"
     inkscape:groupmode="layer"
     id="layer1"
     transform="translate(0,-40.53333)">
    <path
       d="m 66.04,155.68 -6.77333,-5.08 v -6.35 c 0,-3.20146 -2.40771,-5.73617 -5.48746,-6.17538 A 121.77183,121.77183 0 0 1 52.93254,125.2 h 2.10079 a 4.2333333,4.2333333 0 0 0 4.23334,-4.23333 v -4.23333 A 4.1804167,4.1804167 0 0 0 55.66304,112.627 c 3.60363,-2.88131 5.72029,-7.7126 5.72029,-16.168679 0,-11.022542 -6.83948,-26.619729 -15.3326,-35.08375 C 48.75477,60.641675 50.8,58.2763 50.8,55.350009 a 6.3685208,6.3685208 0 0 0 -6.35,-6.35 H 23.28333 a 6.3685208,6.3685208 0 0 0 -6.35,6.35 c 0,2.926291 2.04523,5.291666 4.7625,6.024562 C 13.189479,69.838592 6.35,85.435779 6.35,96.458321 c 0,8.466669 2.116666,13.287369 5.720292,16.168679 a 4.1804167,4.1804167 0 0 0 -3.603626,4.10634 v 4.23333 A 4.2333333,4.2333333 0 0 0 12.7,125.2 h 2.10079 a 121.77183,121.77183 0 0 1 -0.846665,12.87462 c -3.07975,0.43657 -5.487459,2.97392 -5.487459,6.17538 v 6.35 l -6.773333,5.08 A 4.2333333,4.2333333 0 0 0 0,159.06666 v 12.7 A 4.2333333,4.2333333 0 0 0 4.233333,176 H 63.5 a 4.2333333,4.2333333 0 0 0 4.23333,-4.23334 v -12.7 A 4.2333333,4.2333333 0 0 0 66.04,155.68 Z M 30.48265,69.740696 a 4.3127083,4.3127083 0 0 1 6.76804,0 58.311521,58.311521 0 0 1 4.70429,6.950604 l -9.9404,9.953625 a 2.1166667,2.1166667 0 0 0 0,2.995084 l 3.55865,3.558645 a 2.1166667,2.1166667 0 0 0 2.99508,0 l 7.58296,-7.585604 c 1.53458,4.048125 2.54529,7.90575 2.54529,10.847917 v 0.145521 a 13.189479,13.189479 0 0 1 -3.98198,9.278932 l -2.38125,2.38125 V 112.5 H 25.4 v -4.23333 l -2.38125,-2.38125 A 13.184187,13.184187 0 0 1 19.05,96.59855 v -0.156104 c 0,-6.802437 4.71223,-18.248312 11.43265,-26.70175 z M 40.98396,137.9 H 26.74937 c 0.41805,-4.23333 0.73555,-8.45344 0.75142,-12.7 h 12.73175 c 0.0159,4.24656 0.33338,8.46667 0.75142,12.7 z M 12.7,163.3 l 8.46667,-6.35 v -6.35 h 25.4 v 6.35 l 8.46666,6.35 z"
       id="path833"
       style="stroke-width:0.264583;fill:#af211e;fill-opacity:1" />
    <path
       d="m 218.44,155.68 -6.77333,-5.08 v -6.35 a 6.2785625,6.2785625 0 0 0 -4.45294,-5.96636 c -1.01336,-6.61458 -1.69598,-13.26621 -1.69598,-19.95487 v -10.06211 h 1.91558 a 4.2333333,4.2333333 0 0 0 4.23334,-4.23333 V 99.8 a 4.2333333,4.2333333 0 0 0 -4.23334,-4.23334 h -0.82021 l 7.12259,-21.27514 a 6.35,6.35 0 0 0 -6.03779,-8.35819 h -16.99684 v -8.466667 h 6.35 a 2.1166667,2.1166667 0 0 0 2.11667,-2.116666 v -4.233334 a 2.1166667,2.1166667 0 0 0 -2.11667,-2.116666 h -6.35 v -6.35 a 2.1166667,2.1166667 0 0 0 -2.11666,-2.116667 h -4.23334 a 2.1166667,2.1166667 0 0 0 -2.11666,2.116667 v 6.35 h -6.35 a 2.1166667,2.1166667 0 0 0 -2.11667,2.116666 v 4.233334 a 2.1166667,2.1166667 0 0 0 2.11667,2.116666 h 6.35 v 8.466667 h -17.00213 a 6.35,6.35 0 0 0 -6.02721,8.35819 l 7.14375,21.27514 H 165.1 A 4.2333333,4.2333333 0 0 0 160.86667,99.8 v 4.23333 a 4.2333333,4.2333333 0 0 0 4.23333,4.23333 h 2.31775 v 10.05417 c 0,6.65956 -0.67733,13.29002 -1.68275,19.87021 -2.77019,0.69056 -4.86833,3.0771 -4.86833,6.05896 v 6.35 l -6.77334,5.08 A 4.2333333,4.2333333 0 0 0 152.4,159.06666 v 12.7 A 4.2333333,4.2333333 0 0 0 156.63333,176 H 215.9 a 4.2333333,4.2333333 0 0 0 4.23333,-4.23334 v -12.7 A 4.2333333,4.2333333 0 0 0 218.44,155.68 Z m -19.54742,-77.04667 -5.69383,16.93333 h -13.462 L 174.04821,78.63333 Z M 194.31794,137.9 h -15.69773 c 0.89164,-6.49023 1.49754,-13.0175 1.49754,-19.57917 v -10.05417 h 12.7 v 10.05417 c 0,6.56167 0.60589,13.08894 1.50019,19.57917 z M 165.1,163.3 l 8.46667,-6.35 v -6.35 h 25.4 v 6.35 l 8.46666,6.35 z"
       id="path844"
       style="stroke-width:0.264583;fill:#af211e;fill-opacity:1" />
    <path
       d="m 91.46381,92.179989 a 3.6697708,3.6697708 0 1 0 -3.65389,-3.66977 3.6618333,3.6618333 0 0 0 3.65389,3.66977 z M 150.70667,155.68 143.93333,150.6 v -7.9719 a 20.814771,20.814771 0 0 0 4.23334,-12.46982 v -28.08023 c 0,-24.598311 -20.00779,-44.611393 -44.60346,-44.611393 H 82.39654 a 14.724062,14.724062 0 0 0 -13.84035,19.618852 16.454437,16.454437 0 0 0 -0.80963,5.17525 v 22.447251 a 17.959917,17.959917 0 0 0 9.78959,15.98877 q -4.16984,5.84465 -5.34459,13.63134 A 20.005146,20.005146 0 0 0 76.2,149.42789 V 150.6 l -6.77333,5.08 a 4.2333333,4.2333333 0 0 0 -1.69334,3.38666 v 12.7 A 4.2333333,4.2333333 0 0 0 71.96667,176 h 76.2 A 4.2333333,4.2333333 0 0 0 152.4,171.76666 v -12.7 A 4.2333333,4.2333333 0 0 0 150.70667,155.68 Z M 82.39919,70.166657 h 21.16667 c 17.54452,0 31.90081,14.358942 31.90081,31.911393 v 28.08023 a 8.4666667,8.4666667 0 0 1 -2.47915,5.98752 l -1.75419,1.75419 h -46.355 c -0.0503,-0.56621 -0.20637,-1.11919 -0.11906,-1.69333 1.14829,-7.67292 5.68325,-12.14173 12.218459,-15.08125 l 9.220731,-2.87338 a 6.5510833,6.5510833 0 0 0 3.86821,-5.96635 V 99.51689 l -7.1755,1.24354 a 3.937,3.937 0 0 0 -2.04259,2.56117 l -1.502831,5.01385 a 5.2281667,5.2281667 0 0 1 -3.03742,3.35227 c -1.465789,0.58738 -2.704039,1.21973 -4.095749,1.21973 a 4.9397708,4.9397708 0 0 1 -2.03993,-0.46037 l -6.61459,-2.95011 a 5.2466875,5.2466875 0 0 1 -3.12473,-4.78896 V 82.260759 c 0,-1.94998 1.16153,-2.79135 2.60615,-4.23333 l -2.30452,-4.659313 c -0.87313,-1.754188 0.30162,-3.201459 1.66423,-3.201459 z M 80.43333,163.3 88.9,156.95 v -6.35 h 42.33333 v 6.35 L 139.7,163.3 Z"
       id="path855"
       style="stroke-width:0.264583;fill:#af211e;fill-opacity:1" />
    <path
       d="m 279.31269,150.6 v -6.35 c 0,-2.96863 -2.07963,-5.34724 -4.82865,-6.04309 -0.8255,-5.88963 -1.41287,-11.811 -1.41287,-17.76148 v -12.17877 h 6.35 a 4.2333333,4.2333333 0 0 0 4.23333,-4.23332 v -4.233343 a 4.2333333,4.2333333 0 0 0 -4.23333,-4.23333 h -1.98438 l 10.21027,-27.781252 a 2.159,2.159 0 0 0 -0.73025,-2.756958 l -3.21468,-2.145771 c -1.00542,-0.669396 -2.27807,-0.328083 -2.99773,0.632354 -3.70417,4.934477 -11.57817,2.38125 -11.57817,-4.249208 a 1.8044583,1.8044583 0 0 0 -1.8124,-1.799167 h -5.21493 a 1.74625,1.74625 0 0 0 -1.73038,1.322917 6.4558333,6.4558333 0 0 1 -12.6365,0 1.7436042,1.7436042 0 0 0 -1.73037,-1.322917 h -5.21494 a 1.8044583,1.8044583 0 0 0 -1.80446,1.804459 c 0,6.69925 -7.9375,9.141354 -11.59669,4.233333 -0.64558,-0.867833 -1.90764,-1.322917 -2.97127,-0.611188 l -3.22262,2.14048 a 2.159,2.159 0 0 0 -0.73025,2.751666 l 10.21027,27.781252 h -1.98438 a 4.2333333,4.2333333 0 0 0 -4.23333,4.23333 v 4.233343 a 4.2333333,4.2333333 0 0 0 4.23333,4.23332 h 6.35 v 12.17083 c 0,5.93725 -0.58473,11.84275 -1.41023,17.72709 -2.8522,0.62177 -5.02708,3.04271 -5.02708,6.08542 v 6.35 l -6.77598,5.08 a 4.2333333,4.2333333 0 0 0 -1.69069,3.38666 v 12.7 A 4.2333333,4.2333333 0 0 0 224.36667,176 h 59.17141 a 4.2333333,4.2333333 0 0 0 4.23334,-4.23334 v -12.7 A 4.2333333,4.2333333 0 0 0 286.08073,155.68 Z M 244.80838,74.230667 a 18.973271,18.973271 0 0 0 18.4441,0.0212 18.740437,18.740437 0 0 0 7.09612,3.81794 l -6.05102,17.49689 h -20.49462 l -6.05631,-17.51277 a 18.901833,18.901833 0 0 0 7.06173,-3.82323 z m 16.84337,63.669323 h -15.20296 c 0.73554,-5.79437 1.26206,-11.61256 1.26206,-17.4625 v -12.17083 h 12.67884 v 12.17083 c 0,5.84994 0.52652,11.66813 1.26206,17.4625 z M 232.81217,163.3 l 8.45343,-6.35 v -6.35 h 25.36296 v 6.35 l 8.45344,6.35 z m 21.2381,-107.950001 a 7.4083333,7.4083333 0 1 0 -7.40833,-7.408333 7.4083333,7.4083333 0 0 0 7.40833,7.408333 z"
       id="path866"
       style="stroke-width:0.264583;fill:#af211e;fill-opacity:1" />
    <path
       d="m 370.74476,155.68 -6.77334,-5.08 v -6.35 c 0,-2.9554 -2.0611,-5.32871 -4.79689,-6.03515 l -1.41288,-31.12293 7.07232,-5.33136 a 8.4666667,8.4666667 0 0 0 3.37079,-6.760101 V 65.933334 a 8.4666667,8.4666667 0 0 0 -8.46667,-8.466667 h -59.26667 a 8.4666667,8.4666667 0 0 0 -8.46666,8.466667 v 29.104167 a 8.4666667,8.4666667 0 0 0 3.38137,6.768039 l 7.06173,5.3049 -1.41287,31.115 c -2.73579,0.69585 -4.7969,3.06916 -4.7969,6.02456 v 6.35 l -6.77333,5.08 a 4.2333333,4.2333333 0 0 0 -1.69334,3.38666 v 12.7 A 4.2333333,4.2333333 0 0 0 292.00476,176 h 76.2 a 4.2333333,4.2333333 0 0 0 4.23333,-4.23334 v -12.7 A 4.2333333,4.2333333 0 0 0 370.74476,155.68 Z m -66.04,-85.513333 h 10.58333 v 8.466667 h 8.46667 v -8.466667 h 12.7 v 8.466667 h 8.46666 v -8.466667 h 10.58334 V 92.889084 L 344.7812,100.97475 346.38986,137.9 h -32.57021 l 1.60867,-36.93319 -10.72356,-8.061851 z M 300.47142,163.3 l 8.46667,-6.35 v -6.35 h 42.33333 v 6.35 l 8.46667,6.35 z m 35.98334,-57.25848 a 6.2415208,6.2415208 0 0 0 -12.48304,0 v 10.69181 h 12.48304 z"
       id="path877"
       style="stroke-width:0.264583;fill:#af211e;fill-opacity:1" />
    <path
       d="m 438.47809,155.68 -6.77333,-5.08 v -6.35 a 6.35,6.35 0 0 0 -6.35,-6.35 h 0.69056 c -0.40746,-4.23333 -0.69056,-8.46667 -0.69056,-12.7 v -8.46667 h 2.11667 A 4.2333333,4.2333333 0 0 0 431.70476,112.5 v -4.23333 a 4.1698333,4.1698333 0 0 0 -3.60098,-4.09046 25.135417,25.135417 0 0 0 3.60098,-12.84288 25.4,25.4 0 1 0 -47.20696,12.82965 4.1777708,4.1777708 0 0 0 -3.59304,4.10369 V 112.5 a 4.2333333,4.2333333 0 0 0 4.23333,4.23333 h 2.11667 V 125.2 c 0,4.23333 -0.28311,8.46667 -0.69056,12.7 h 0.69056 a 6.35,6.35 0 0 0 -6.35,6.35 v 6.35 l -6.77333,5.08 a 4.2333333,4.2333333 0 0 0 -1.69334,3.38666 v 12.7 A 4.2333333,4.2333333 0 0 0 376.67143,176 h 59.26666 a 4.2333333,4.2333333 0 0 0 4.23334,-4.23334 v -12.7 A 4.2333333,4.2333333 0 0 0 438.47809,155.68 Z m -25.82333,-38.94667 v 7.9375 c 0,4.4159 0.26458,8.82386 0.67204,13.22917 h -14.04408 c 0.40746,-4.39737 0.67204,-8.80533 0.67204,-13.22917 v -7.9375 z m -6.35,-38.1 a 12.7,12.7 0 1 1 -12.7,12.7 12.713229,12.713229 0 0 1 12.7,-12.7 z M 385.13809,163.3 l 8.46667,-6.35 v -6.35 h 25.4 v 6.35 l 8.46667,6.35 z"
       id="path888"
       style="stroke-width:0.264583;fill:#af211e;fill-opacity:1" />
  </g>
</svg>
